<svg width="90" height="102" viewBox="0 0 90 102" fill="none" xmlns="http://www.w3.org/2000/svg">
<path d="M3.19873 25.134L2.69873 24.2679L2.69873 24.2679L3.19873 25.134ZM3.19873 76.866L3.69873 76L3.69873 76L3.19873 76.866ZM46.5 100.134L47 101L47 101L46.5 100.134ZM43.5 100.134L43 101L43 101L43.5 100.134ZM86.8013 76.866L86.3013 76L86.3013 76L86.8013 76.866ZM86.8013 25.134L87.3013 24.2679L87.3013 24.2679L86.8013 25.134ZM46.5 1.86602L46 2.73205L46 2.73205L46.5 1.86602ZM43.5 1.86602L44 2.73205L44 2.73205L43.5 1.86602ZM7.52886 27.634L7.02886 26.7679L7.02886 26.7679L7.52886 27.634ZM7.52886 74.366L8.02886 73.5L8.02886 73.5L7.52886 74.366ZM46.5 95.1339L46 94.2679L46 94.2679L46.5 95.1339ZM43.5 95.134L43 96L43 96L43.5 95.134ZM82.4711 74.366L82.9711 75.232L82.9711 75.232L82.4711 74.366ZM82.4711 27.634L82.9711 26.7679L82.9711 26.7679L82.4711 27.634ZM46.5 6.866L46 7.73203L46 7.73203L46.5 6.866ZM43.5 6.86601L44 7.73203L44 7.73203L43.5 6.86601ZM44.499 50.1346C44.021 50.4113 43.8579 51.0231 44.1346 51.501C44.4113 51.979 45.0231 52.1421 45.501 51.8654L44.499 50.1346ZM46 2.73205L86.3013 26L87.3013 24.2679L47 0.999994L46 2.73205ZM87.3013 27.732V74.2679H89.3013V27.732H87.3013ZM86.3013 76L46 99.2679L47 101L87.3013 77.732L86.3013 76ZM44 99.2679L3.69873 76L2.69873 77.732L43 101L44 99.2679ZM2.69873 74.2679V27.732H0.69873V74.2679H2.69873ZM3.69873 26L44 2.73205L43 0.999995L2.69873 24.2679L3.69873 26ZM2.69873 27.732C2.69873 27.0175 3.07993 26.3573 3.69873 26L2.69873 24.2679C1.46113 24.9825 0.69873 26.303 0.69873 27.732H2.69873ZM3.69873 76C3.07993 75.6427 2.69873 74.9825 2.69873 74.2679H0.69873C0.69873 75.697 1.46113 77.0175 2.69873 77.732L3.69873 76ZM46 99.2679C45.3812 99.6252 44.6188 99.6252 44 99.2679L43 101C44.2376 101.715 45.7624 101.715 47 101L46 99.2679ZM87.3013 74.2679C87.3013 74.9825 86.9201 75.6427 86.3013 76L87.3013 77.732C88.5389 77.0175 89.3013 75.697 89.3013 74.2679H87.3013ZM86.3013 26C86.9201 26.3573 87.3013 27.0175 87.3013 27.732H89.3013C89.3013 26.303 88.5389 24.9825 87.3013 24.2679L86.3013 26ZM47 0.999994C45.7624 0.285463 44.2376 0.285463 43 0.999995L44 2.73205C44.6188 2.37478 45.3812 2.37478 46 2.73205L47 0.999994ZM46 7.73203L81.9711 28.5L82.9711 26.7679L47 5.99998L46 7.73203ZM82.9711 30.232V71.7679H84.9711V30.232H82.9711ZM81.9711 73.5L46 94.2679L47 96L82.9711 75.232L81.9711 73.5ZM44 94.2679L8.02886 73.5L7.02886 75.232L43 96L44 94.2679ZM7.02886 71.7679V30.232H5.02886V71.7679H7.02886ZM8.02886 28.5L44 7.73203L43 5.99998L7.02886 26.7679L8.02886 28.5ZM7.02886 30.232C7.02886 29.5175 7.41006 28.8572 8.02886 28.5L7.02886 26.7679C5.79125 27.4825 5.02886 28.803 5.02886 30.232H7.02886ZM8.02886 73.5C7.41006 73.1427 7.02886 72.4825 7.02886 71.7679H5.02886C5.02886 73.197 5.79126 74.5175 7.02886 75.232L8.02886 73.5ZM46 94.2679C45.3812 94.6252 44.6188 94.6252 44 94.2679L43 96C44.2376 96.7145 45.7624 96.7145 47 96L46 94.2679ZM82.9711 71.7679C82.9711 72.4825 82.5899 73.1427 81.9711 73.5L82.9711 75.232C84.2087 74.5175 84.9711 73.197 84.9711 71.7679H82.9711ZM81.9711 28.5C82.5899 28.8572 82.9711 29.5175 82.9711 30.232H84.9711C84.9711 28.803 84.2087 27.4825 82.9711 26.7679L81.9711 28.5ZM47 5.99998C45.7624 5.28545 44.2376 5.28545 43 5.99998L44 7.73203C44.6188 7.37476 45.3812 7.37476 46 7.73203L47 5.99998ZM82.499 28.1346L44.499 50.1346L45.501 51.8654L83.501 29.8654L82.499 28.1346Z" fill="white"/>
</svg>
