<svg width="182" height="181" viewBox="0 0 182 181" fill="none" xmlns="http://www.w3.org/2000/svg">
<path d="M49.1987 25.134L48.6987 24.268L48.6987 24.268L49.1987 25.134ZM49.1987 76.866L49.6987 76L49.6987 76L49.1987 76.866ZM92.5 100.134L93 101L93 101L92.5 100.134ZM89.5 100.134L89 101L89 101L89.5 100.134ZM132.801 76.866L132.301 76L132.301 76L132.801 76.866ZM132.801 25.134L133.301 24.268L133.301 24.268L132.801 25.134ZM92.5 1.86603L92 2.73206L92 2.73206L92.5 1.86603ZM89.5 1.86604L90 2.73206L90 2.73206L89.5 1.86604ZM90.4974 50.1355C90.0199 50.4131 89.8579 51.0252 90.1355 51.5026C90.4131 51.9801 91.0252 52.1421 91.5026 51.8645L90.4974 50.1355ZM95.1987 104.134L95.6987 105L95.6987 105L95.1987 104.134ZM95.1987 155.866L95.6987 155L95.6987 155L95.1987 155.866ZM138.5 179.134L139 180L139 180L138.5 179.134ZM135.5 179.134L135 180L135 180L135.5 179.134ZM178.801 155.866L178.301 155L178.301 155L178.801 155.866ZM178.801 104.134L178.301 105L178.301 105L178.801 104.134ZM138.5 80.866L139 80L139 80L138.5 80.866ZM135.5 80.866L135 80L135 80L135.5 80.866ZM136.489 129.141C136.014 129.423 135.858 130.037 136.141 130.511C136.423 130.986 137.037 131.142 137.511 130.859L136.489 129.141ZM3.19873 104.134L3.69873 105L3.69873 105L3.19873 104.134ZM3.19873 155.866L3.69873 155L3.69873 155L3.19873 155.866ZM46.5 179.134L47 180L47 180L46.5 179.134ZM43.5 179.134L43 180L43 180L43.5 179.134ZM86.8013 155.866L86.3013 155L86.3013 155L86.8013 155.866ZM86.8013 104.134L86.3013 105L86.3013 105L86.8013 104.134ZM46.5 80.866L47 80L47 80L46.5 80.866ZM43.5 80.866L43 80L43 80L43.5 80.866ZM44.4974 130.865C44.9748 131.142 45.5869 130.98 45.8645 130.503C46.1421 130.025 45.9801 129.413 45.5026 129.135L44.4974 130.865ZM92 2.73206L132.301 26L133.301 24.268L93 1.00001L92 2.73206ZM133.301 27.7321V74.268H135.301V27.7321H133.301ZM132.301 76L92 99.268L93 101L133.301 77.7321L132.301 76ZM90 99.268L49.6987 76L48.6987 77.7321L89 101L90 99.268ZM48.6987 74.268V27.7321H46.6987V74.268H48.6987ZM49.6987 26L90 2.73206L89 1.00001L48.6987 24.268L49.6987 26ZM48.6987 27.7321C48.6987 27.0175 49.0799 26.3573 49.6987 26L48.6987 24.268C47.4611 24.9825 46.6987 26.303 46.6987 27.7321H48.6987ZM49.6987 76C49.0799 75.6427 48.6987 74.9825 48.6987 74.268H46.6987C46.6987 75.697 47.4611 77.0175 48.6987 77.7321L49.6987 76ZM92 99.268C91.3812 99.6252 90.6188 99.6252 90 99.268L89 101C90.2376 101.715 91.7624 101.715 93 101L92 99.268ZM133.301 74.268C133.301 74.9825 132.92 75.6427 132.301 76L133.301 77.7321C134.539 77.0175 135.301 75.697 135.301 74.268H133.301ZM132.301 26C132.92 26.3573 133.301 27.0175 133.301 27.7321H135.301C135.301 26.303 134.539 24.9825 133.301 24.268L132.301 26ZM93 1.00001C91.7624 0.285478 90.2376 0.285479 89 1.00001L90 2.73206C90.6188 2.37479 91.3812 2.37479 92 2.73206L93 1.00001ZM133.497 25.1355L90.4974 50.1355L91.5026 51.8645L134.503 26.8645L133.497 25.1355ZM138 81.732L178.301 105L179.301 103.268L139 80L138 81.732ZM179.301 106.732V153.268H181.301V106.732H179.301ZM178.301 155L138 178.268L139 180L179.301 156.732L178.301 155ZM136 178.268L95.6987 155L94.6987 156.732L135 180L136 178.268ZM94.6987 153.268V106.732H92.6987V153.268H94.6987ZM95.6987 105L136 81.732L135 80L94.6987 103.268L95.6987 105ZM94.6987 106.732C94.6987 106.018 95.0799 105.357 95.6987 105L94.6987 103.268C93.4611 103.982 92.6987 105.303 92.6987 106.732H94.6987ZM95.6987 155C95.0799 154.643 94.6987 153.982 94.6987 153.268H92.6987C92.6987 154.697 93.4611 156.018 94.6987 156.732L95.6987 155ZM138 178.268C137.381 178.625 136.619 178.625 136 178.268L135 180C136.238 180.715 137.762 180.715 139 180L138 178.268ZM179.301 153.268C179.301 153.982 178.92 154.643 178.301 155L179.301 156.732C180.539 156.018 181.301 154.697 181.301 153.268H179.301ZM178.301 105C178.92 105.357 179.301 106.018 179.301 106.732H181.301C181.301 105.303 180.539 103.982 179.301 103.268L178.301 105ZM139 80C137.762 79.2855 136.238 79.2855 135 80L136 81.732C136.619 81.3748 137.381 81.3748 138 81.732L139 80ZM178.489 104.141L136.489 129.141L137.511 130.859L179.511 105.859L178.489 104.141ZM46 81.732L86.3013 105L87.3013 103.268L47 80L46 81.732ZM87.3013 106.732V153.268H89.3013V106.732H87.3013ZM86.3013 155L46 178.268L47 180L87.3013 156.732L86.3013 155ZM44 178.268L3.69873 155L2.69873 156.732L43 180L44 178.268ZM2.69873 153.268V106.732H0.69873V153.268H2.69873ZM3.69873 105L44 81.732L43 80L2.69873 103.268L3.69873 105ZM2.69873 106.732C2.69873 106.018 3.07993 105.357 3.69873 105L2.69873 103.268C1.46113 103.982 0.69873 105.303 0.69873 106.732H2.69873ZM3.69873 155C3.07993 154.643 2.69873 153.982 2.69873 153.268H0.69873C0.69873 154.697 1.46113 156.018 2.69873 156.732L3.69873 155ZM46 178.268C45.3812 178.625 44.6188 178.625 44 178.268L43 180C44.2376 180.715 45.7624 180.715 47 180L46 178.268ZM87.3013 153.268C87.3013 153.982 86.9201 154.643 86.3013 155L87.3013 156.732C88.5389 156.018 89.3013 154.697 89.3013 153.268H87.3013ZM86.3013 105C86.9201 105.357 87.3013 106.018 87.3013 106.732H89.3013C89.3013 105.303 88.5389 103.982 87.3013 103.268L86.3013 105ZM47 80C45.7624 79.2855 44.2376 79.2855 43 80L44 81.732C44.6188 81.3748 45.3812 81.3748 46 81.732L47 80ZM1.49738 105.864L44.4974 130.865L45.5026 129.135L2.50262 104.135L1.49738 105.864Z" fill="white"/>
</svg>
